<svg xmlns="http://www.w3.org/2000/svg" viewBox="0 0 24 24" width="24" height="24">
  <path fill="#1677FF" d="M21.422 14.762c-1.611-.552-3.603-1.276-5.825-2.167a16.097 16.097 0 0 0 1.89-4.462h-4.102V6.588h5.083V5.588h-5.083V2.5h-2.5v3.088H5.802v1h5.083v1.545H6.302v1h7.2a13.654 13.654 0 0 1-1.33 3.11c-1.946-.774-3.966-1.311-5.52-1.311-2.86 0-4.652 1.685-4.652 3.819 0 2.568 2.382 3.968 5.37 3.968 2.278 0 4.394-1.008 6.173-2.87 2.346 1.252 4.97 2.428 7.41 3.271a1 1 0 0 0 .67-1.884zM7.06 17.719c-2.073 0-2.87-.946-2.87-1.968 0-.958.712-1.819 2.152-1.819 1.223 0 2.87.435 4.649 1.181-1.477 1.588-2.746 2.606-3.931 2.606z"/>
</svg>
