<svg xmlns="http://www.w3.org/2000/svg" viewBox="0 0 24 24" width="24" height="24">
  <path fill="#07C160" d="M8.813 11.612a.86.86 0 1 1 0-1.72.86.86 0 0 1 0 1.72zm4.374 0a.86.86 0 1 1 0-1.72.86.86 0 0 1 0 1.72zM11 2C5.477 2 1 5.813 1 10.5c0 2.65 1.42 5.023 3.644 6.618l-.907 2.72a.5.5 0 0 0 .72.58l3.273-1.818C8.886 18.865 10.018 19 11 19c.34 0 .676-.018 1.007-.05a6.996 6.996 0 0 1-.507-2.6c0-3.866 3.358-7 7.5-7 .34 0 .675.023 1.004.066C19.552 5.358 15.696 2 11 2zm5.594 13.362a.66.66 0 1 1 0-1.32.66.66 0 0 1 0 1.32zm3.406 0a.66.66 0 1 1 0-1.32.66.66 0 0 1 0 1.32zM19 10.4c-3.59 0-6.5 2.612-6.5 5.85S15.41 22.1 19 22.1c.858 0 1.68-.143 2.445-.404l2.393 1.33a.5.5 0 0 0 .72-.58l-.663-1.99C22.477 19.294 25.5 17.82 25.5 16.25c0-3.238-2.91-5.85-6.5-5.85z"/>
</svg>
